<svg xmlns="http://www.w3.org/2000/svg" xmlns:xlink="http://www.w3.org/1999/xlink" viewBox="0 0 500 500">
  <defs>
    <style>
      .cls-1 {
        fill: #fff;
      }

      .cls-2 {
        fill: #f5853f;
      }

      .cls-3 {
        fill: #4f184b;
      }

      .cls-4 {
        fill: #f7f5f0;
      }

      .cls-5 {
        fill: #c1b9a8;
      }

      .cls-6 {
        fill: #ede5d3;
      }

      .cls-7 {
        clip-path: url(#clip-path);
      }

      .cls-8 {
        fill: #d3d3d3;
      }

      .cls-9 {
        fill: #231c07;
      }

      .cls-10 {
        fill: #fcbbe9;
      }

      .cls-11 {
        fill: #544525;
      }

      .cls-12 {
        fill: #ffd37b;
      }

      .cls-13 {
        fill: #f4d35e;
      }
            #Cow{
        transform-origin: 50% 50%;
        animation: jump 1.8s infinite;
      }
      #Cube{
        animation: float 1.8s infinite ease-out;
      }

      @keyframes jump{
        50%{
          transform:rotate(40deg);
        }
        100%{
          transform: translate(20px) rotate(-120deg);
        }
      }
      @keyframes float{
        25%{
          transform: translateY(10px);
        }
        50%{
          transform: translateY(-10px);
        }
      }
    </style>
    <clipPath id="clip-path">
      <path class="cls-1" d="M455.022,202.886l-1.328-1.861c-.223.186-.438.38-.678.551a11.412,11.412,0,0,1-3.874,1.779,10.889,10.889,0,0,1-19.108-10.338c-3.9-7.358-2.895-15.81,2.735-19.825.24-.171.493-.312.742-.462l-4.365-6.119a13.2,13.2,0,0,0-.977-1.219,19.169,19.169,0,1,0-29.484,5.6,14.333,14.333,0,0,0-2.661,16.387c7.353-.882,16.519,3.985,22.846,12.855,6.38,8.944,7.97,19.29,4.634,25.95a14.316,14.316,0,0,0,19.573,2.822l8.6-6.135A14.33,14.33,0,0,0,455.022,202.886Z"/>
    </clipPath>
  </defs>
  <g id="Background">
    <g id="Background-2" data-name="Background">
      <rect class="cls-2" width="500" height="500"/>
      <rect class="cls-3" y="413" width="500" height="87"/>
      <rect class="cls-3" width="500" height="87"/>
    </g>
  </g>
  <g id="Cube">
    <g id="Cube-2" data-name="Cube">
      <polygon class="cls-4" points="321.3 148 178.7 148 178.5 148.35 249.61 271.5 249.7 272 392.3 272 392.31 272.02 392.61 271.5 321.3 148"/>
      <g>
        <polygon class="cls-5" points="392.31 270.52 321.3 393.5 178.7 393.5 178.69 393.48 249.7 270.5 392.3 270.5 392.31 270.52"/>
        <polygon class="cls-6" points="249.61 271 178.5 394.15 107.39 271 178.5 147.85 249.61 271"/>
      </g>
    </g>
  </g>
  <g id="Cow">
    <g id="Cow-2" data-name="Cow">
      <path class="cls-1" d="M385.17,168.49h7.845a0,0,0,0,1,0,0v20.578a2.956,2.956,0,0,1-2.956,2.956h-2.24a2.649,2.649,0,0,1-2.649-2.649V168.49a0,0,0,0,1,0,0Z" transform="translate(596.831 -194.884) rotate(94.119)"/>
      <g>
        <path class="cls-1" d="M455.022,202.886l-1.328-1.861c-.223.186-.438.38-.678.551a11.412,11.412,0,0,1-3.874,1.779,10.889,10.889,0,0,1-19.108-10.338c-3.9-7.358-2.895-15.81,2.735-19.825.24-.171.493-.312.742-.462l-4.365-6.119a13.2,13.2,0,0,0-.977-1.219,19.169,19.169,0,1,0-29.484,5.6,14.333,14.333,0,0,0-2.661,16.387c7.353-.882,16.519,3.985,22.846,12.855,6.38,8.944,7.97,19.29,4.634,25.95a14.316,14.316,0,0,0,19.573,2.822l8.6-6.135A14.33,14.33,0,0,0,455.022,202.886Z"/>
        <g class="cls-7">
          <path class="cls-8" d="M397.735,169.871a11.176,11.176,0,0,0-3.259,6.5,1.307,1.307,0,0,0,2.579.431c.036-.266.08-.531.137-.794.03-.139.062-.277.1-.414.016-.062.033-.122.05-.183.042-.155,0-.038-.016.047a6.065,6.065,0,0,1,.625-1.534c.057-.113.116-.225.178-.335q.045-.082.093-.165c.1-.172.094-.072-.006,0a1.5,1.5,0,0,0,.207-.317c.079-.118.162-.234.247-.348a9.938,9.938,0,0,1,1.1-1.24,1.306,1.306,0,0,0,.287-.943,1.334,1.334,0,0,0-.477-.9,1.349,1.349,0,0,0-1.84.19Z"/>
        </g>
      </g>
      <path class="cls-8" d="M418.87,200.237c-6.327-8.87-15.493-13.737-22.846-12.855a14.427,14.427,0,0,0,1.189,2.008l25.877,36.275c.13.183.276.347.414.522C426.84,219.527,425.25,209.181,418.87,200.237Z"/>
      <path class="cls-9" d="M449.142,203.355a11.412,11.412,0,0,0,3.874-1.779c.24-.171.455-.365.678-.551L450.824,197A10.921,10.921,0,0,1,449.142,203.355Z"/>
      <path class="cls-9" d="M430.034,193.017a10.864,10.864,0,0,1,13.939-5.619L433.511,172.73c-.249.15-.5.291-.742.462C427.139,177.207,426.137,185.659,430.034,193.017Z"/>
      <path class="cls-9" d="M431.539,195.483a21.667,21.667,0,0,1-1.5-2.466,10.889,10.889,0,0,0,19.108,10.338C443.246,204.829,436.071,201.836,431.539,195.483Z"/>
      <path class="cls-9" d="M450.824,197l-6.851-9.6a10.864,10.864,0,0,0-13.939,5.619,21.667,21.667,0,0,0,1.5,2.466c4.532,6.353,11.707,9.346,17.6,7.872A10.921,10.921,0,0,0,450.824,197Z"/>
      <ellipse class="cls-10" cx="397.868" cy="163.29" rx="6.102" ry="9.83" transform="translate(-20.863 261.407) rotate(-35.501)"/>
      <circle class="cls-11" cx="394.364" cy="159.545" r="1.356"/>
      <circle class="cls-11" cx="399.482" cy="166.719" r="1.356"/>
      <g>
        <circle class="cls-12" cx="407.252" cy="146.425" r="5.23"/>
        <circle class="cls-12" cx="417.882" cy="161.327" r="5.23"/>
        <circle cx="417.882" cy="161.327" r="3.487"/>
        <circle cx="407.252" cy="146.425" r="3.487"/>
      </g>
      <path d="M419.1,132.11c-2.42.173-4,1.493-4.483,4.3a1.136,1.136,0,0,0,.385,1.059,14.548,14.548,0,0,0,4.158,2.243,1.2,1.2,0,0,0,1.494-1.633q-1.184-2.638-.405-4.331A1.175,1.175,0,0,0,419.1,132.11Z"/>
      <path d="M435.567,155.579c-.963,2.226-2.731,3.278-5.538,2.81a1.133,1.133,0,0,1-.872-.714,14.518,14.518,0,0,1-.742-4.665,1.2,1.2,0,0,1,2.035-.87q2.1,1.989,3.954,1.814A1.175,1.175,0,0,1,435.567,155.579Z"/>
      <path class="cls-1" d="M424.856,222.623H432.7a0,0,0,0,1,0,0v20.71a2.824,2.824,0,0,1-2.824,2.824h-2.24a2.781,2.781,0,0,1-2.781-2.781V222.623A0,0,0,0,1,424.856,222.623Z" transform="translate(96.634 -124.037) rotate(18.517)"/>
      <g>
        <rect class="cls-1" x="457.657" y="208.257" width="3.487" height="11.331" rx="1.246" transform="translate(744.906 -204.764) rotate(99.321)"/>
        <path class="cls-11" d="M468.661,215.643l-3.9-3.2a3.015,3.015,0,0,0-4.892,1.752c-.01.061-.019.122-.028.182a2.92,2.92,0,0,0,3.931,3.108Z"/>
      </g>
      <path class="cls-1" d="M411.2,131.348h4.636a0,0,0,0,1,0,0v7.022a0,0,0,0,1,0,0h-9.653a0,0,0,0,1,0,0v-2A5.017,5.017,0,0,1,411.2,131.348Z" transform="translate(396.983 -297.479) rotate(69.977)"/>
      <path class="cls-1" d="M424.779,158.019h9.653a0,0,0,0,1,0,0v5.142a1.88,1.88,0,0,1-1.88,1.88H429.8a5.017,5.017,0,0,1-5.017-5.017v-2A0,0,0,0,1,424.779,158.019Z" transform="translate(661.675 557.504) rotate(-140.979)"/>
    </g>
  </g>
  <g id="Words">
    <g id="Words-2" data-name="Words">
      <path class="cls-13" d="M150.625,427.909h43.691v8.327H150.625Zm17.5,5.108h8.687v57.3h-8.687Z"/>
      <path class="cls-13" d="M210.2,488.109a19.435,19.435,0,0,1-7.644-8.07,25.879,25.879,0,0,1-2.7-12.082V450.273a25.887,25.887,0,0,1,2.7-12.084,19.447,19.447,0,0,1,7.644-8.07,24.245,24.245,0,0,1,22.825,0,19.447,19.447,0,0,1,7.644,8.07,25.9,25.9,0,0,1,2.7,12.084v17.684a25.891,25.891,0,0,1-2.7,12.082,19.435,19.435,0,0,1-7.644,8.07,24.238,24.238,0,0,1-22.825,0Zm18.162-7.511a11.668,11.668,0,0,0,4.514-4.936,16.363,16.363,0,0,0,1.6-7.4V449.972a16.361,16.361,0,0,0-1.6-7.4,11.676,11.676,0,0,0-4.514-4.937,13.975,13.975,0,0,0-13.5,0,11.67,11.67,0,0,0-4.514,4.937,16.361,16.361,0,0,0-1.6,7.4v18.285a16.363,16.363,0,0,0,1.6,7.4,11.662,11.662,0,0,0,4.514,4.936,13.975,13.975,0,0,0,13.5,0Z"/>
      <path class="cls-13" d="M256.574,427.909h8.687V490.32h-8.687Zm4.258,0h34.706v8.327H260.832Zm0,27.814h30.021v8.327H260.832Z"/>
      <path class="cls-13" d="M314.466,488.238a17.833,17.833,0,0,1-7.431-7.941,28.3,28.3,0,0,1-2.555-12.555V427.909h8.687v40.134q0,6.823,3.406,10.559t9.625,3.734q6.26,0,9.687-3.734t3.429-10.559V427.909H348v39.833a28.29,28.29,0,0,1-2.555,12.555,17.8,17.8,0,0,1-7.452,7.941,26.744,26.744,0,0,1-23.527,0Z"/>
    </g>
  </g>
</svg>
