<svg xmlns="http://www.w3.org/2000/svg" viewBox="0 0 100 100">
  <defs>
    <style>
      .b {
        fill: none;
        stroke: #232323;
        stroke-miterlimit: 10;
      }
      .practice{
        fill: blue;
        animation: moving 3000ms infinite ease-in;
      }
      .ideas{
        fill: violet;
        animation: circle 10s infinite;
      }
      @keyframes moving {
        25%{
          transform: translate(25%,25%);
        }
        50%{
          transform: translate(50%, 0%);
        }
        75%{
          transform: translate(25%,-25%);
        }
        100%{
          transform: translate(0%,0%);
        }
      }
      @keyframes circle {
        10%{
          transform: translate(25%,0%);
        }
        20%{
          transform: translate(18.5%, -18.5%);
        }
        30%{
          transform: translate(0%,-25%);
          fill: green;
        }
        40%{
          transform: translate(-18.5%, -18.5%);
        }
        50%{
          transform: translate(-25%,0%);
        }
        60%{
          transform: translate(-18.5%, 18.5%)
        }
        70%{
          transform: translate(0%,25%);
        }
        80%{
          transform: translate(18.5%, 18.5%);
        }
        90%{
          transform: translate(25%,0%);
        }
        100%{
          transform: translate(0%, 0%);
        }
      }


    </style>
  </defs>
  <g>
  <g class="horizontal">
  <path class="b" d="M0 0 100 0"/>
  <path class="b" d="M0 10 100 10"/>
  <path class="b" d="M0 20 100 20"/>
  <path class="b" d="M0 30 100 30"/>
  <path class="b" d="M0 40 100 40"/>
  <path class="b" d="M0 50 100 50"/>
  <path class="b" d="M0 60 100 60"/>
  <path class="b" d="M0 70 100 70"/>
  <path class="b" d="M0 80 100 80"/>
  <path class="b" d="M0 90 100 90"/>
  <path class="b" d="M0 100 100 100"/>
  <!-- <path class="b" d="M0 100 100 100"/> -->
  <!-- <path class="b" d="M0 0 100 100"/> -->
  <!-- <path class="b" d="M0 100 100 0"/> -->
  </g>
  <g>
  <path class="b" d="M0 0 0 100"/>
  <path class="b" d="M10 0 10 100"/>
  <path class="b" d="M20 0 20 100"/>
  <path class="b" d="M30 0 30 100"/>
  <path class="b" d="M40 0 40 100"/>
  <path class="b" d="M50 0 50 100"/>
  <path class="b" d="M60 0 60 100"/>
  <path class="b" d="M70 0 70 100"/>
  <path class="b" d="M80 0 80 100"/>
  <path class="b" d="M90 0 90 100"/>
  <path class="b" d="M100 0 100 100"/>
  </g>
  </g>
  <path d="M25 50 50 75 75 50 50 25z" stroke="red" fill="none"/>
  <path d="M37.5 62.5 62.5 62.5 62.5 37.5 37.5 37.5z" stroke="orange" fill="none"/>
  <circle class="trial" cx="50" cy="50" r="25" fill="none" stroke="yellow"/>
  <circle class="practice" cx="25" cy="50" r="2"/>
  <circle class="ideas" cx="50" cy="50" r="2"/>
</svg>
