<svg xmlns="http://www.w3.org/2000/svg" viewBox="0 0 100 100">
  <defs>
    <style>
      .a {
        fill: #457B9D;
        transform-origin: 50% 50%;
        animation: floating ease-in-out 1.8s infinite;
      }

      .b {
        fill: #E63946;
        transform-origin: 50% 50%;
        animation: rotate 1.8s infinite;
      }

      .c {
        fill: #1D3557;
        transform-origin: 50% 50%;
        animation: rotatesX 4.0s infinite;
        <!-- transition: all 2s cubic-bezier(.71,0,.33,1.56); -->
      }

      .d {
        fill: #F1FAEE;
        transform-origin: 50% 50%;
        animation: rotates 1.8s infinite;
      }

      .e {
        fill: #fff;
      }
      .stars{
        animation: blink 1.8s infinite;
      }
      @keyframes blink {
        100%{
          opacity: 50%;
        }
      }
      @keyframes rotate{
        100%{
          transform: rotate(360deg);
        }
      }
      @keyframes rotates{
        100%{
          transform: rotate(-360deg);
        }
      }
      @keyframes rotatesX{
        50%{
          transform: translateX(-20px) rotate(-360deg);
        }
      }
      @keyframes floating{
        50%{
          fill: #E63946;
          transform: translateY(-5px);
        }

        100%{
          transform: rotate(45deg) translateY(-0px);
        }
      }

    </style>
  </defs>
  <rect width="100" height="100" fill="000000"/>
  <circle class="a" cx="50" cy="50" r="15"/>
  <circle class="b" cx="35.5" cy="29.5" r="3.5"/>
  <circle class="c" cx="73.5" cy="72.5" r="3.5"/>
  <circle class="d" cx="68" cy="29" r="4"/>
  <g class="stars">
    <polygon class="e" points="11 47.415 11.618 48.667 13 48.868 12 49.843 12.236 51.219 11 50.569 9.764 51.219 10 49.843 9 48.868 10.382 48.667 11 47.415"/>
    <polygon class="e" points="23 38.415 23.618 39.667 25 39.868 24 40.843 24.236 42.219 23 41.569 21.764 42.219 22 40.843 21 39.868 22.382 39.667 23 38.415"/>
    <polygon class="e" points="87 58.415 87.618 59.667 89 59.868 88 60.843 88.236 62.219 87 61.569 85.764 62.219 86 60.843 85 59.868 86.382 59.667 87 58.415"/>
    <polygon class="e" points="80 22.415 80.618 23.667 82 23.868 81 24.843 81.236 26.219 80 25.569 78.764 26.219 79 24.843 78 23.868 79.382 23.667 80 22.415"/>
    <polygon class="e" points="85 8.415 85.618 9.667 87 9.868 86 10.843 86.236 12.219 85 11.569 83.764 12.219 84 10.843 83 9.868 84.382 9.667 85 8.415"/>
    <polygon class="e" points="55 8.415 55.618 9.667 57 9.868 56 10.843 56.236 12.219 55 11.569 53.764 12.219 54 10.843 53 9.868 54.382 9.667 55 8.415"/>
    <polygon class="e" points="49 86.415 49.618 87.667 51 87.868 50 88.843 50.236 90.219 49 89.569 47.764 90.219 48 88.843 47 87.868 48.382 87.667 49 86.415"/>
    <polygon class="e" points="24 66.415 24.618 67.667 26 67.868 25 68.843 25.236 70.219 24 69.569 22.764 70.219 23 68.843 22 67.868 23.382 67.667 24 66.415"/>
    <polygon class="e" points="95 92.415 95.618 93.667 97 93.868 96 94.843 96.236 96.219 95 95.569 93.764 96.219 94 94.843 93 93.868 94.382 93.667 95 92.415"/>
    <polygon class="e" points="93 75.415 93.618 76.667 95 76.868 94 77.843 94.236 79.219 93 78.569 91.764 79.219 92 77.843 91 76.868 92.382 76.667 93 75.415"/>
    <polygon class="e" points="66 91.415 66.618 92.667 68 92.868 67 93.843 67.236 95.219 66 94.569 64.764 95.219 65 93.843 64 92.868 65.382 92.667 66 91.415"/>
    <polygon class="e" points="27 8.415 27.618 9.667 29 9.868 28 10.843 28.236 12.219 27 11.569 25.764 12.219 26 10.843 25 9.868 26.382 9.667 27 8.415"/>
    <polygon class="e" points="11 3.415 11.618 4.667 13 4.868 12 5.843 12.236 7.219 11 6.569 9.764 7.219 10 5.843 9 4.868 10.382 4.667 11 3.415"/>
    <polygon class="e" points="89 39.415 89.618 40.667 91 40.868 90 41.843 90.236 43.219 89 42.569 87.764 43.219 88 41.843 87 40.868 88.382 40.667 89 39.415"/>
    <polygon class="e" points="94 22.415 94.618 23.667 96 23.868 95 24.843 95.236 26.219 94 25.569 92.764 26.219 93 24.843 92 23.868 93.382 23.667 94 22.415"/>
    <polygon class="e" points="78 44.415 78.618 45.667 80 45.868 79 46.843 79.236 48.219 78 47.569 76.764 48.219 77 46.843 76 45.868 77.382 45.667 78 44.415"/>
    <polygon class="e" points="27 92.415 27.618 93.667 29 93.868 28 94.843 28.236 96.219 27 95.569 25.764 96.219 26 94.843 25 93.868 26.382 93.667 27 92.415"/>
    <polygon class="e" points="3 76.415 3.618 77.667 5 77.868 4 78.843 4.236 80.219 3 79.569 1.764 80.219 2 78.843 1 77.868 2.382 77.667 3 76.415"/>
    <polygon class="e" points="13 18.415 13.618 19.667 15 19.868 14 20.843 14.236 22.219 13 21.569 11.764 22.219 12 20.843 11 19.868 12.382 19.667 13 18.415"/>
  </g>
</svg>
